<?xml version="1.0" standalone="no"?>
<svg
  width="600"
  height="600"
  viewBox="0 0 600 600"
  xmlns="http://www.w3.org/2000/svg"
>
  <g transform="translate(300,300)">
    <path d="M75.1,-81.5C117.4,-89.7,185.6,-102.8,215.5,-84.5C245.4,-66.3,237,-16.7,211.5,17.1C185.9,50.9,143.2,69,118,107.4C92.7,145.7,85,204.3,59.6,219.2C34.2,234.1,-8.8,205.3,-50.9,186.8C-93,168.3,-134.2,160.1,-168.3,136.9C-202.3,113.6,-229.4,75.2,-211.5,44.7C-193.6,14.2,-130.9,-8.5,-111.2,-50.4C-91.4,-92.3,-114.6,-153.4,-103.3,-159.4C-91.9,-165.3,-46,-116.2,-14.8,-93.2C16.4,-70.2,32.8,-73.4,75.1,-81.5Z" fill="#432d57" />
  </g>
</svg>
  