<?xml version="1.0" standalone="no"?>
<svg
  width="600"
  height="600"
  viewBox="0 0 600 600"
  xmlns="http://www.w3.org/2000/svg"
>
  <g transform="translate(300,300)">
    <path d="M148.9,-218C190.7,-204.8,220.9,-159.7,241.3,-111.3C261.7,-62.9,272.4,-11.1,256.1,30.2C239.9,71.4,196.6,102.2,158.3,125.5C119.9,148.8,86.4,164.6,47.7,187.2C9,209.8,-34.9,239.2,-76.6,237.7C-118.3,236.1,-157.8,203.5,-190.2,165.3C-222.6,127,-247.9,83.2,-256.7,35.6C-265.5,-11.9,-257.8,-63.1,-238.5,-110.4C-219.2,-157.8,-188.3,-201.3,-146.6,-214.6C-104.9,-227.9,-52.4,-210.9,0.5,-211.8C53.5,-212.6,107,-231.2,148.9,-218Z" fill="#432d57" />
  </g>
</svg>
  