<?xml version="1.0" standalone="no"?>
<svg
  width="600"
  height="600"
  viewBox="0 0 600 600"
  xmlns="http://www.w3.org/2000/svg"
>
  <g transform="translate(300,300)">
    <path d="M117.8,-156C148.5,-163.7,166.1,-123.8,170.2,-86.1C174.3,-48.5,164.8,-13.1,138.1,4.3C111.4,21.7,67.4,21,50,46C32.5,71.1,41.6,121.9,37.7,118.5C33.8,115.1,16.9,57.6,-29.2,61.4C-75.3,65.3,-150.6,130.5,-179.2,134.6C-207.7,138.7,-189.5,81.7,-190.8,31.3C-192.1,-19.2,-212.9,-63,-208,-103.8C-203.1,-144.6,-172.4,-182.5,-133.4,-171.1C-94.4,-159.6,-47.2,-98.8,-1.8,-96C43.6,-93.2,87.2,-148.4,117.8,-156Z" fill="#ffffff" />
  </g>
</svg>
  